<svg width="40" height="40" viewBox="0 0 40 40" fill="none" xmlns="http://www.w3.org/2000/svg">
<g id="Ajouter">
<circle id="Ellipse 1" cx="20" cy="20" r="20" fill="white"/>
<path id="Vector" d="M20 4.96426C20.2769 4.96407 20.5512 5.01846 20.807 5.12434C21.0629 5.23022 21.2954 5.38551 21.4912 5.58132C21.687 5.77712 21.8423 6.00961 21.9482 6.26549C22.054 6.52136 22.1084 6.7956 22.1082 7.07251L22.1102 17.8902L32.9279 17.8922C33.2048 17.8922 33.479 17.9467 33.7347 18.0527C33.9905 18.1586 34.2229 18.3139 34.4187 18.5097C34.6145 18.7055 34.7698 18.9379 34.8757 19.1937C34.9817 19.4495 35.0362 19.7236 35.0362 20.0005C35.0362 20.2773 34.9817 20.5515 34.8757 20.8073C34.7698 21.063 34.6145 21.2954 34.4187 21.4912C34.2229 21.687 33.9905 21.8423 33.7347 21.9482C33.479 22.0542 33.2048 22.1087 32.9279 22.1087L22.1102 22.1107L22.1082 32.9284C22.1082 33.4875 21.8861 34.0238 21.4908 34.4192C21.0954 34.8145 20.5591 35.0367 20 35.0367C19.4409 35.0367 18.9046 34.8145 18.5092 34.4192C18.1139 34.0238 17.8918 33.4875 17.8918 32.9284L17.8898 22.1107L7.07205 22.1087C6.51291 22.1087 5.97667 21.8866 5.5813 21.4912C5.18592 21.0958 4.9638 20.5596 4.9638 20.0005C4.9638 19.4413 5.18592 18.9051 5.5813 18.5097C5.97667 18.1143 6.51291 17.8922 7.07205 17.8922L17.8898 17.8902L17.8918 7.07251C17.8916 6.7956 17.946 6.52136 18.0518 6.26549C18.1577 6.00961 18.313 5.77712 18.5088 5.58132C18.7046 5.38551 18.9371 5.23022 19.193 5.12434C19.4488 5.01846 19.7231 4.96407 20 4.96426Z" fill="#848484"/>
</g>
</svg>
