<svg width="40" height="40" viewBox="0 0 40 40" fill="none" xmlns="http://www.w3.org/2000/svg">
<g id="bouton_collection">
<g id="Pris">
<circle id="Ellipse 1" cx="20" cy="20" r="20" fill="white"/>
<path id="Vector" d="M18.6458 7.5C17.5528 7.5 16.6667 8.3861 16.6667 9.47917V25.3125C16.6667 26.4056 17.5528 27.2917 18.6458 27.2917C19.7389 27.2917 20.625 26.4056 20.625 25.3125V9.47917C20.625 8.3861 19.7389 7.5 18.6458 7.5ZM22.5582 9.4945C21.4833 9.85279 20.8911 11.0036 21.2243 12.0865L25.275 25.2513C25.6193 26.3704 26.8172 26.9869 27.928 26.6166C29.0028 26.2583 29.595 25.1075 29.2618 24.0246L25.2111 10.8598C24.8668 9.74068 23.6689 9.12425 22.5582 9.4945ZM13.3681 10.1389C12.275 10.1389 11.3889 11.025 11.3889 12.1181V25.3125C11.3889 26.4056 12.275 27.2917 13.3681 27.2917C14.4611 27.2917 15.3472 26.4056 15.3472 25.3125V12.1181C15.3472 11.025 14.4611 10.1389 13.3681 10.1389ZM10.0694 28.6111C9.34074 28.6111 8.75 29.2018 8.75 29.9306C8.75 30.6593 9.34074 31.25 10.0694 31.25H31.1806C31.9093 31.25 32.5 30.6593 32.5 29.9306C32.5 29.2018 31.9093 28.6111 31.1806 28.6111H10.0694Z" fill="#848484"/>
</g>
</g>
</svg>
