<svg width="21" height="18" viewBox="0 0 21 18" fill="none" xmlns="http://www.w3.org/2000/svg">
<path id="Vector" fill-rule="evenodd" clip-rule="evenodd" d="M11.281 0.45514C11.2144 0.31926 11.1078 0.204183 10.9739 0.123524C10.8399 0.0428654 10.6842 0 10.5252 0C10.3662 0 10.2105 0.0428654 10.0765 0.123524C9.94259 0.204183 9.836 0.31926 9.76937 0.45514L7.38037 5.32747L1.71917 5.95962C1.56123 5.97717 1.41193 6.03694 1.28894 6.13185C1.16596 6.22675 1.07445 6.35283 1.02523 6.49515C0.976016 6.63748 0.971158 6.79009 1.01123 6.93493C1.05131 7.07977 1.13464 7.21077 1.25136 7.31244L5.43836 10.9549L4.3271 16.2189C4.29624 16.3657 4.31066 16.5177 4.36868 16.6569C4.42669 16.7962 4.52587 16.9169 4.65448 17.0048C4.78309 17.0927 4.93576 17.1442 5.09443 17.153C5.25311 17.1619 5.41116 17.1278 5.54991 17.0548L10.5252 14.4337L15.5005 17.0548C15.6393 17.1281 15.7976 17.1624 15.9565 17.1536C16.1154 17.1449 16.2683 17.0934 16.3971 17.0054C16.5259 16.9173 16.6252 16.7964 16.6831 16.6568C16.7411 16.5173 16.7553 16.3651 16.7241 16.2182L15.6129 10.9557L19.799 7.31244C19.9158 7.21077 19.9991 7.07977 20.0392 6.93493C20.0792 6.79009 20.0744 6.63748 20.0252 6.49515C19.9759 6.35283 19.8844 6.22675 19.7614 6.13185C19.6385 6.03694 19.4892 5.97717 19.3312 5.95962L13.6692 5.32669L11.281 0.45514Z" fill="#4C4C4C"/>
</svg>
