<svg width="20" height="18" viewBox="0 0 20 18" fill="none" xmlns="http://www.w3.org/2000/svg">
<path id="Vector" fill-rule="evenodd" clip-rule="evenodd" d="M10.6248 0.45514C10.5581 0.31926 10.4516 0.204183 10.3176 0.123524C10.1837 0.0428654 10.028 0 9.86895 0C9.70993 0 9.55423 0.0428654 9.42028 0.123524C9.28634 0.204183 9.17975 0.31926 9.11312 0.45514L6.72412 5.32747L1.06292 5.95962C0.904975 5.97717 0.755675 6.03694 0.632694 6.13185C0.509713 6.22675 0.418199 6.35283 0.368982 6.49515C0.319766 6.63748 0.314908 6.79009 0.354983 6.93493C0.395058 7.07977 0.478388 7.21077 0.595112 7.31244L4.78211 10.9549L3.67085 16.2189C3.63999 16.3657 3.65441 16.5177 3.71243 16.6569C3.77044 16.7962 3.86962 16.9169 3.99823 17.0048C4.12684 17.0927 4.27951 17.1442 4.43818 17.153C4.59686 17.1619 4.75491 17.1278 4.89366 17.0548L9.86895 14.4337L14.8442 17.0548C14.9831 17.1281 15.1413 17.1624 15.3002 17.1536C15.4592 17.1449 15.6121 17.0934 15.7409 17.0054C15.8697 16.9173 15.9689 16.7964 16.0269 16.6568C16.0848 16.5173 16.0991 16.3651 16.0679 16.2182L14.9566 10.9557L19.1428 7.31244C19.2595 7.21077 19.3428 7.07977 19.3829 6.93493C19.423 6.79009 19.4181 6.63748 19.3689 6.49515C19.3197 6.35283 19.2282 6.22675 19.1052 6.13185C18.9822 6.03694 18.8329 5.97717 18.675 5.95962L13.0129 5.32669L10.6248 0.45514Z" fill="white"/>
</svg>
