<svg width="38" height="38" viewBox="0 0 38 38" fill="none" xmlns="http://www.w3.org/2000/svg">
<path id="out" d="M36.9561 1.04393C37.287 1.37439 37.5495 1.76685 37.7287 2.19887C37.9078 2.63088 38 3.09397 38 3.56165C38 4.02933 37.9078 4.49242 37.7287 4.92443C37.5495 5.35645 37.287 5.74891 36.9561 6.07937L24.0397 19.0005L36.9561 31.9217C37.2867 32.2523 37.549 32.6448 37.7279 33.0768C37.9069 33.5088 37.9989 33.9718 37.9989 34.4394C37.9989 34.907 37.9069 35.37 37.7279 35.802C37.549 36.234 37.2867 36.6265 36.9561 36.9571C36.6254 37.2878 36.2329 37.55 35.8009 37.729C35.3689 37.9079 34.9059 38 34.4383 38C33.9708 38 33.5078 37.9079 33.0758 37.729C32.6438 37.55 32.2513 37.2878 31.9206 36.9571L18.9995 24.0407L6.07832 36.9571C5.41058 37.6249 4.50493 38 3.5606 38C2.61627 38 1.71062 37.6249 1.04288 36.9571C0.375134 36.2894 -3.27212e-06 35.3837 -3.23084e-06 34.4394C-3.18957e-06 33.4951 0.375134 32.5894 1.04288 31.9217L13.9593 19.0005L1.04288 6.07937C0.375135 5.41163 -1.92241e-06 4.50598 -1.88113e-06 3.56165C-1.83986e-06 2.61732 0.375135 1.71167 1.04288 1.04393C1.71062 0.376183 2.61627 0.0010495 3.5606 0.00104954C4.50493 0.00104958 5.41058 0.376183 6.07832 1.04393L18.9995 13.9603L31.9206 1.04393C32.2511 0.712992 32.6436 0.450454 33.0756 0.271327C33.5076 0.0922008 33.9707 -1.76128e-07 34.4383 -1.55685e-07C34.906 -1.35242e-07 35.3691 0.0922008 35.8011 0.271327C36.2331 0.450454 36.6256 0.712993 36.9561 1.04393Z" fill="white"/>
</svg>
