<svg width="19" height="19" viewBox="0 0 19 19" fill="none" xmlns="http://www.w3.org/2000/svg">
<path id="Vector" d="M9.5 0C7.62108 0 5.78435 0.557165 4.22209 1.60104C2.65982 2.64491 1.44218 4.12861 0.723149 5.86451C0.00411618 7.6004 -0.184015 9.51054 0.182544 11.3534C0.549104 13.1962 1.45389 14.8889 2.78249 16.2175C4.11109 17.5461 5.80383 18.4509 7.64665 18.8175C9.48946 19.184 11.3996 18.9959 13.1355 18.2769C14.8714 17.5578 16.3551 16.3402 17.399 14.7779C18.4428 13.2156 19 11.3789 19 9.5C18.9971 6.98132 17.9953 4.56663 16.2143 2.78566C14.4334 1.00469 12.0187 0.00287356 9.5 0ZM9.5 17.6429C7.34038 17.6429 5.26922 16.7849 3.74213 15.2579C2.21505 13.7308 1.35715 11.6596 1.35715 9.5C1.35715 7.34038 2.21505 5.26921 3.74213 3.74213C5.26922 2.21505 7.34038 1.35714 9.5 1.35714V9.5L15.255 15.255C14.5002 16.0124 13.6033 16.6132 12.6157 17.023C11.6281 17.4328 10.5693 17.6435 9.5 17.6429Z" fill="#D9D9D9"/>
</svg>
