<svg width="25" height="29" viewBox="0 0 25 29" fill="none" xmlns="http://www.w3.org/2000/svg">
<g id="trash">
<g id="Group 43">
<path id="Vector" d="M2.41649 10.875H22.354L21.5766 25.6612C21.52 26.5654 21.1209 27.414 20.4605 28.0343C19.8002 28.6546 18.9283 29 18.0223 29H6.90716C6.00118 29 5.12927 28.6546 4.46894 28.0343C3.80861 27.414 3.40951 26.5654 3.35288 25.6612L2.41649 10.875Z" fill="white"/>
<path id="Vector_2" d="M24.9298 8.90351V5.34211H19.5877V3.5614C19.5877 2.61686 19.2125 1.711 18.5446 1.04311C17.8767 0.375218 16.9709 0 16.0263 0H8.90351C7.95897 0 7.05311 0.375218 6.38522 1.04311C5.71732 1.711 5.3421 2.61686 5.3421 3.5614V5.34211H0V8.90351H24.9298Z" fill="white"/>
<path id="Vector_3" d="M8.25896 14.5C8.57696 14.468 8.8946 14.564 9.14205 14.7668C9.38951 14.9697 9.54653 15.2627 9.5786 15.5816L10.3823 23.6413C10.4058 23.9558 10.3059 24.267 10.1039 24.5086C9.9018 24.7503 9.6136 24.9031 9.30073 24.9347C8.98786 24.9662 8.67508 24.8739 8.42911 24.6775C8.18314 24.481 8.02345 24.196 7.98411 23.8831L7.18043 15.8234C7.14856 15.5045 7.24427 15.186 7.44652 14.9378C7.64876 14.6896 7.94099 14.5322 8.25896 14.5ZM16.5368 14.5C16.8545 14.5322 17.1465 14.6894 17.3487 14.9372C17.5508 15.185 17.6468 15.5031 17.6153 15.8218L16.8117 23.8815C16.7718 24.1937 16.6121 24.4781 16.3664 24.6741C16.1207 24.8701 15.8085 24.9622 15.4961 24.9309C15.1838 24.8997 14.8959 24.7474 14.6937 24.5066C14.4915 24.2657 14.391 23.9553 14.4135 23.6413L15.2172 15.5816C15.2493 15.263 15.4061 14.9702 15.6532 14.7675C15.9003 14.5647 16.2191 14.4685 16.5368 14.5Z" fill="#848484"/>
</g>
</g>
</svg>
