<svg width="23" height="23" viewBox="0 0 23 23" fill="none" xmlns="http://www.w3.org/2000/svg">
<path id="Vector" d="M20.6879 9.12137C20.3235 8.74055 19.9466 8.34813 19.8045 8.00307C19.673 7.687 19.6653 7.16313 19.6576 6.65569C19.6431 5.71233 19.6276 4.64332 18.8843 3.90004C18.1411 3.15676 17.0721 3.14129 16.1288 3.12679C15.6213 3.11906 15.0975 3.11133 14.7814 2.97988C14.4373 2.83779 14.044 2.46084 13.6632 2.09645C12.9962 1.45562 12.2385 0.729736 11.2294 0.729736C10.2204 0.729736 9.46358 1.45562 8.79571 2.09645C8.4149 2.46084 8.02249 2.83779 7.67743 2.97988C7.36331 3.11133 6.83752 3.11906 6.33009 3.12679C5.38676 3.14129 4.31778 3.15676 3.57452 3.90004C2.83125 4.64332 2.82062 5.71233 2.80129 6.65569C2.79356 7.16313 2.78583 7.687 2.65438 8.00307C2.5123 8.34716 2.13535 8.74055 1.77097 9.12137C1.13016 9.78829 0.404297 10.5461 0.404297 11.5552C0.404297 12.5642 1.13016 13.3211 1.77097 13.9889C2.13535 14.3698 2.5123 14.7622 2.65438 15.1072C2.78583 15.4233 2.79356 15.9472 2.80129 16.4546C2.81579 17.398 2.83125 18.467 3.57452 19.2103C4.31778 19.9536 5.38676 19.969 6.33009 19.9835C6.83752 19.9912 7.36138 19.999 7.67743 20.1304C8.02152 20.2725 8.4149 20.6495 8.79571 21.0139C9.46262 21.6547 10.2204 22.3806 11.2294 22.3806C12.2385 22.3806 12.9953 21.6547 13.6632 21.0139C14.044 20.6495 14.4364 20.2725 14.7814 20.1304C15.0975 19.999 15.6213 19.9912 16.1288 19.9835C17.0721 19.969 18.1411 19.9536 18.8843 19.2103C19.6276 18.467 19.6431 17.398 19.6576 16.4546C19.6653 15.9472 19.673 15.4233 19.8045 15.1072C19.9466 14.7632 20.3235 14.3698 20.6879 13.9889C21.3287 13.322 22.0546 12.5642 22.0546 11.5552C22.0546 10.5461 21.3287 9.78926 20.6879 9.12137ZM15.6426 9.78249L10.23 15.1952C10.1582 15.2671 10.073 15.3241 9.97908 15.363C9.88522 15.402 9.7846 15.422 9.68298 15.422C9.58137 15.422 9.48075 15.402 9.38689 15.363C9.29302 15.3241 9.20774 15.2671 9.13593 15.1952L6.81626 12.8755C6.74442 12.8036 6.68743 12.7183 6.64855 12.6245C6.60967 12.5306 6.58966 12.43 6.58966 12.3284C6.58966 12.2268 6.60967 12.1262 6.64855 12.0323C6.68743 11.9385 6.74442 11.8532 6.81626 11.7813C6.96134 11.6362 7.15813 11.5547 7.36331 11.5547C7.46491 11.5547 7.56551 11.5747 7.65938 11.6136C7.75324 11.6525 7.83853 11.7095 7.91037 11.7813L9.68298 13.555L14.5485 8.68835C14.6203 8.61651 14.7056 8.55952 14.7995 8.52064C14.8934 8.48176 14.994 8.46175 15.0956 8.46175C15.1971 8.46175 15.2978 8.48176 15.3916 8.52064C15.4855 8.55952 15.5708 8.61651 15.6426 8.68835C15.7144 8.76019 15.7714 8.84548 15.8103 8.93935C15.8492 9.03322 15.8692 9.13382 15.8692 9.23542C15.8692 9.33702 15.8492 9.43763 15.8103 9.5315C15.7714 9.62536 15.7144 9.71065 15.6426 9.78249Z" fill="#3B3B3B"/>
</svg>
